# MagicaVoxel @ ephtracy

# material
mtllib EMPClusterMissileProjectile.mtl
usemtl palette

# normals
vn -1 0 0
vn 1 0 0
vn 0 0 1
vn 0 0 -1
vn 0 -1 0
vn 0 1 0

# texcoords
vt 0.845703 0.5
vt 0.939453 0.5
vt 0.994141 0.5

# verts
v -3.5 13 37
v -3.5 13 35
v -3.5 14 37
v -3.5 14 35
v -2.5 13 35
v -2.5 13 34
v -2.5 14 35
v -2.5 14 34
v -1.5 12 35
v -1.5 12 11
v -1.5 13 35
v -1.5 13 34
v -1.5 13 11
v -1.5 13 9
v -1.5 14 35
v -1.5 14 34
v -1.5 14 11
v -1.5 14 9
v -1.5 15 35
v -1.5 15 11
v -0.5 10 37
v -0.5 10 35
v -0.5 11 37
v -0.5 11 36
v -0.5 11 35
v -0.5 11 34
v -0.5 12 36
v -0.5 12 35
v -0.5 12 34
v -0.5 12 11
v -0.5 12 9
v -0.5 13 36
v -0.5 13 35
v -0.5 13 11
v -0.5 13 9
v -0.5 13 8
v -0.5 14 36
v -0.5 14 35
v -0.5 14 11
v -0.5 14 9
v -0.5 14 8
v -0.5 15 36
v -0.5 15 35
v -0.5 15 34
v -0.5 15 11
v -0.5 15 9
v -0.5 16 37
v -0.5 16 36
v -0.5 16 35
v -0.5 16 34
v -0.5 17 37
v -0.5 17 35
v 2.5 13 37
v 2.5 13 36
v 2.5 14 37
v 2.5 14 36
v -2.5 13 37
v -2.5 13 36
v -2.5 14 37
v -2.5 14 36
v 0.5 10 37
v 0.5 10 35
v 0.5 11 37
v 0.5 11 36
v 0.5 11 35
v 0.5 11 34
v 0.5 12 36
v 0.5 12 35
v 0.5 12 34
v 0.5 12 11
v 0.5 12 9
v 0.5 13 36
v 0.5 13 35
v 0.5 13 11
v 0.5 13 9
v 0.5 13 8
v 0.5 14 36
v 0.5 14 35
v 0.5 14 11
v 0.5 14 9
v 0.5 14 8
v 0.5 15 36
v 0.5 15 35
v 0.5 15 34
v 0.5 15 11
v 0.5 15 9
v 0.5 16 37
v 0.5 16 36
v 0.5 16 35
v 0.5 16 34
v 0.5 17 37
v 0.5 17 35
v 1.5 12 35
v 1.5 12 11
v 1.5 13 35
v 1.5 13 34
v 1.5 13 11
v 1.5 13 9
v 1.5 14 35
v 1.5 14 34
v 1.5 14 11
v 1.5 14 9
v 1.5 15 35
v 1.5 15 11
v 2.5 13 35
v 2.5 13 34
v 2.5 14 35
v 2.5 14 34
v 3.5 13 37
v 3.5 13 35
v 3.5 14 37
v 3.5 14 35
v -3.5 13 37
v -3.5 14 37
v -2.5 13 37
v -2.5 14 37
v -0.5 10 37
v -0.5 11 37
v -0.5 16 37
v -0.5 17 37
v 0.5 10 37
v 0.5 11 37
v 0.5 16 37
v 0.5 17 37
v 2.5 13 37
v 2.5 14 37
v 3.5 13 37
v 3.5 14 37
v -2.5 13 36
v -2.5 14 36
v -1.5 13 36
v -1.5 14 36
v -0.5 11 36
v -0.5 12 36
v -0.5 13 36
v -0.5 14 36
v -0.5 15 36
v -0.5 16 36
v 0.5 11 36
v 0.5 12 36
v 0.5 13 36
v 0.5 14 36
v 0.5 15 36
v 0.5 16 36
v 1.5 13 36
v 1.5 14 36
v 2.5 13 36
v 2.5 14 36
v -1.5 12 35
v -1.5 13 35
v -1.5 14 35
v -1.5 15 35
v -0.5 12 35
v -0.5 13 35
v -0.5 14 35
v -0.5 15 35
v 0.5 12 35
v 0.5 13 35
v 0.5 14 35
v 0.5 15 35
v 1.5 12 35
v 1.5 13 35
v 1.5 14 35
v 1.5 15 35
v -3.5 13 35
v -3.5 14 35
v -2.5 13 35
v -2.5 14 35
v -0.5 10 35
v -0.5 11 35
v -0.5 16 35
v -0.5 17 35
v 0.5 10 35
v 0.5 11 35
v 0.5 16 35
v 0.5 17 35
v 2.5 13 35
v 2.5 14 35
v 3.5 13 35
v 3.5 14 35
v -2.5 13 34
v -2.5 14 34
v -1.5 13 34
v -1.5 14 34
v -0.5 11 34
v -0.5 12 34
v -0.5 15 34
v -0.5 16 34
v 0.5 11 34
v 0.5 12 34
v 0.5 15 34
v 0.5 16 34
v 1.5 13 34
v 1.5 14 34
v 2.5 13 34
v 2.5 14 34
v -1.5 12 11
v -1.5 13 11
v -1.5 14 11
v -1.5 15 11
v -0.5 12 11
v -0.5 13 11
v -0.5 14 11
v -0.5 15 11
v 0.5 12 11
v 0.5 13 11
v 0.5 14 11
v 0.5 15 11
v 1.5 12 11
v 1.5 13 11
v 1.5 14 11
v 1.5 15 11
v -1.5 13 9
v -1.5 14 9
v -0.5 12 9
v -0.5 13 9
v -0.5 14 9
v -0.5 15 9
v 0.5 12 9
v 0.5 13 9
v 0.5 14 9
v 0.5 15 9
v 1.5 13 9
v 1.5 14 9
v -0.5 13 8
v -0.5 14 8
v 0.5 13 8
v 0.5 14 8
v -0.5 10 37
v 0.5 10 37
v -0.5 10 35
v 0.5 10 35
v -0.5 11 35
v 0.5 11 35
v -0.5 11 34
v 0.5 11 34
v -1.5 12 35
v -0.5 12 35
v 0.5 12 35
v 1.5 12 35
v -0.5 12 34
v 0.5 12 34
v -1.5 12 11
v -0.5 12 11
v 0.5 12 11
v 1.5 12 11
v -0.5 12 9
v 0.5 12 9
v -3.5 13 37
v -2.5 13 37
v 2.5 13 37
v 3.5 13 37
v -2.5 13 36
v -1.5 13 36
v -0.5 13 36
v 0.5 13 36
v 1.5 13 36
v 2.5 13 36
v -3.5 13 35
v -2.5 13 35
v -1.5 13 35
v -0.5 13 35
v 0.5 13 35
v 1.5 13 35
v 2.5 13 35
v 3.5 13 35
v -2.5 13 34
v -1.5 13 34
v 1.5 13 34
v 2.5 13 34
v -1.5 13 11
v -0.5 13 11
v 0.5 13 11
v 1.5 13 11
v -1.5 13 9
v -0.5 13 9
v 0.5 13 9
v 1.5 13 9
v -0.5 13 8
v 0.5 13 8
v -0.5 16 37
v 0.5 16 37
v -0.5 16 36
v 0.5 16 36
v -0.5 11 37
v 0.5 11 37
v -0.5 11 36
v 0.5 11 36
v -3.5 14 37
v -2.5 14 37
v 2.5 14 37
v 3.5 14 37
v -2.5 14 36
v -1.5 14 36
v -0.5 14 36
v 0.5 14 36
v 1.5 14 36
v 2.5 14 36
v -3.5 14 35
v -2.5 14 35
v -1.5 14 35
v -0.5 14 35
v 0.5 14 35
v 1.5 14 35
v 2.5 14 35
v 3.5 14 35
v -2.5 14 34
v -1.5 14 34
v 1.5 14 34
v 2.5 14 34
v -1.5 14 11
v -0.5 14 11
v 0.5 14 11
v 1.5 14 11
v -1.5 14 9
v -0.5 14 9
v 0.5 14 9
v 1.5 14 9
v -0.5 14 8
v 0.5 14 8
v -1.5 15 35
v -0.5 15 35
v 0.5 15 35
v 1.5 15 35
v -0.5 15 34
v 0.5 15 34
v -1.5 15 11
v -0.5 15 11
v 0.5 15 11
v 1.5 15 11
v -0.5 15 9
v 0.5 15 9
v -0.5 16 35
v 0.5 16 35
v -0.5 16 34
v 0.5 16 34
v -0.5 17 37
v 0.5 17 37
v -0.5 17 35
v 0.5 17 35

# faces
f 3/2/1 2/2/1 1/2/1
f 4/2/1 2/2/1 3/2/1
f 7/2/1 6/2/1 5/2/1
f 8/2/1 6/2/1 7/2/1
f 11/2/1 10/2/1 9/2/1
f 12/2/1 10/2/1 11/2/1
f 13/2/1 10/2/1 12/2/1
f 16/3/1 13/3/1 12/3/1
f 17/2/1 14/2/1 13/2/1
f 17/3/1 13/3/1 16/3/1
f 18/2/1 14/2/1 17/2/1
f 19/2/1 16/2/1 15/2/1
f 19/2/1 17/2/1 16/2/1
f 20/2/1 17/2/1 19/2/1
f 23/2/1 22/2/1 21/2/1
f 24/2/1 22/2/1 23/2/1
f 25/2/1 22/2/1 24/2/1
f 27/2/1 26/2/1 25/2/1
f 27/2/1 25/2/1 24/2/1
f 28/2/1 26/2/1 27/2/1
f 29/2/1 26/2/1 28/2/1
f 32/3/1 28/3/1 27/3/1
f 33/3/1 28/3/1 32/3/1
f 34/2/1 31/2/1 30/2/1
f 35/2/1 31/2/1 34/2/1
f 40/2/1 36/2/1 35/2/1
f 41/2/1 36/2/1 40/2/1
f 42/3/1 38/3/1 37/3/1
f 43/3/1 38/3/1 42/3/1
f 45/2/1 40/2/1 39/2/1
f 46/2/1 40/2/1 45/2/1
f 48/2/1 44/2/1 43/2/1
f 48/2/1 43/2/1 42/2/1
f 49/2/1 44/2/1 48/2/1
f 50/2/1 44/2/1 49/2/1
f 51/2/1 48/2/1 47/2/1
f 51/2/1 49/2/1 48/2/1
f 52/2/1 49/2/1 51/2/1
f 55/2/1 54/2/1 53/2/1
f 56/2/1 54/2/1 55/2/1
f 57/2/2 58/2/2 59/2/2
f 59/2/2 58/2/2 60/2/2
f 61/2/2 62/2/2 63/2/2
f 63/2/2 62/2/2 64/2/2
f 64/2/2 62/2/2 65/2/2
f 65/2/2 66/2/2 67/2/2
f 64/2/2 65/2/2 67/2/2
f 67/2/2 66/2/2 68/2/2
f 68/2/2 66/2/2 69/2/2
f 67/3/2 68/3/2 72/3/2
f 72/3/2 68/3/2 73/3/2
f 70/2/2 71/2/2 74/2/2
f 74/2/2 71/2/2 75/2/2
f 75/2/2 76/2/2 80/2/2
f 80/2/2 76/2/2 81/2/2
f 77/3/2 78/3/2 82/3/2
f 82/3/2 78/3/2 83/3/2
f 79/2/2 80/2/2 85/2/2
f 85/2/2 80/2/2 86/2/2
f 83/2/2 84/2/2 88/2/2
f 82/2/2 83/2/2 88/2/2
f 88/2/2 84/2/2 89/2/2
f 89/2/2 84/2/2 90/2/2
f 87/2/2 88/2/2 91/2/2
f 88/2/2 89/2/2 91/2/2
f 91/2/2 89/2/2 92/2/2
f 93/2/2 94/2/2 95/2/2
f 95/2/2 94/2/2 96/2/2
f 96/2/2 94/2/2 97/2/2
f 96/3/2 97/3/2 100/3/2
f 97/2/2 98/2/2 101/2/2
f 100/3/2 97/3/2 101/3/2
f 101/2/2 98/2/2 102/2/2
f 99/2/2 100/2/2 103/2/2
f 100/2/2 101/2/2 103/2/2
f 103/2/2 101/2/2 104/2/2
f 105/2/2 106/2/2 107/2/2
f 107/2/2 106/2/2 108/2/2
f 109/2/2 110/2/2 111/2/2
f 111/2/2 110/2/2 112/2/2
f 115/2/3 114/2/3 113/2/3
f 116/2/3 114/2/3 115/2/3
f 121/2/3 118/2/3 117/2/3
f 122/2/3 118/2/3 121/2/3
f 123/2/3 120/2/3 119/2/3
f 124/2/3 120/2/3 123/2/3
f 127/2/3 126/2/3 125/2/3
f 128/2/3 126/2/3 127/2/3
f 131/2/3 130/2/3 129/2/3
f 132/2/3 130/2/3 131/2/3
f 135/3/3 132/3/3 131/3/3
f 136/3/3 132/3/3 135/3/3
f 139/2/3 134/2/3 133/2/3
f 140/3/3 136/3/3 135/3/3
f 140/2/3 134/2/3 139/2/3
f 140/3/3 135/3/3 134/3/3
f 140/3/3 137/3/3 136/3/3
f 141/3/3 137/3/3 140/3/3
f 142/3/3 137/3/3 141/3/3
f 143/2/3 138/2/3 137/2/3
f 143/3/3 137/3/3 142/3/3
f 144/2/3 138/2/3 143/2/3
f 145/3/3 142/3/3 141/3/3
f 146/3/3 142/3/3 145/3/3
f 147/2/3 146/2/3 145/2/3
f 148/2/3 146/2/3 147/2/3
f 153/2/3 150/2/3 149/2/3
f 154/2/3 150/2/3 153/2/3
f 155/2/3 152/2/3 151/2/3
f 156/2/3 152/2/3 155/2/3
f 161/2/3 158/2/3 157/2/3
f 162/2/3 158/2/3 161/2/3
f 163/2/3 160/2/3 159/2/3
f 164/2/3 160/2/3 163/2/3
f 165/2/4 166/2/4 167/2/4
f 167/2/4 166/2/4 168/2/4
f 169/2/4 170/2/4 173/2/4
f 173/2/4 170/2/4 174/2/4
f 171/2/4 172/2/4 175/2/4
f 175/2/4 172/2/4 176/2/4
f 177/2/4 178/2/4 179/2/4
f 179/2/4 178/2/4 180/2/4
f 181/2/4 182/2/4 183/2/4
f 183/2/4 182/2/4 184/2/4
f 185/2/4 186/2/4 189/2/4
f 189/2/4 186/2/4 190/2/4
f 187/2/4 188/2/4 191/2/4
f 191/2/4 188/2/4 192/2/4
f 193/2/4 194/2/4 195/2/4
f 195/2/4 194/2/4 196/2/4
f 197/2/4 198/2/4 201/2/4
f 201/2/4 198/2/4 202/2/4
f 199/2/4 200/2/4 203/2/4
f 203/2/4 200/2/4 204/2/4
f 205/2/4 206/2/4 209/2/4
f 209/2/4 206/2/4 210/2/4
f 207/2/4 208/2/4 211/2/4
f 211/2/4 208/2/4 212/2/4
f 213/2/4 214/2/4 216/2/4
f 216/2/4 214/2/4 217/2/4
f 215/2/4 216/2/4 219/2/4
f 219/2/4 216/2/4 220/2/4
f 217/2/4 218/2/4 221/2/4
f 221/2/4 218/2/4 222/2/4
f 220/2/4 221/2/4 223/2/4
f 223/2/4 221/2/4 224/2/4
f 225/2/4 226/2/4 227/2/4
f 227/2/4 226/2/4 228/2/4
f 231/2/5 230/2/5 229/2/5
f 232/2/5 230/2/5 231/2/5
f 235/2/5 234/2/5 233/2/5
f 236/2/5 234/2/5 235/2/5
f 241/2/5 238/2/5 237/2/5
f 242/2/5 240/2/5 239/2/5
f 243/2/5 241/2/5 237/2/5
f 244/3/5 242/3/5 241/3/5
f 244/2/5 241/2/5 243/2/5
f 245/2/5 240/2/5 242/2/5
f 245/3/5 242/3/5 244/3/5
f 246/2/5 240/2/5 245/2/5
f 247/2/5 245/2/5 244/2/5
f 248/2/5 245/2/5 247/2/5
f 253/2/5 250/2/5 249/2/5
f 258/2/5 252/2/5 251/2/5
f 259/2/5 253/2/5 249/2/5
f 259/2/5 254/2/5 253/2/5
f 260/2/5 254/2/5 259/2/5
f 261/3/5 255/3/5 254/3/5
f 261/2/5 254/2/5 260/2/5
f 262/3/5 255/3/5 261/3/5
f 263/3/5 257/3/5 256/3/5
f 264/2/5 258/2/5 257/2/5
f 264/3/5 257/3/5 263/3/5
f 265/2/5 252/2/5 258/2/5
f 265/2/5 258/2/5 264/2/5
f 266/2/5 252/2/5 265/2/5
f 267/2/5 261/2/5 260/2/5
f 268/2/5 261/2/5 267/2/5
f 269/2/5 265/2/5 264/2/5
f 270/2/5 265/2/5 269/2/5
f 275/2/5 272/2/5 271/2/5
f 276/2/5 272/2/5 275/2/5
f 277/2/5 274/2/5 273/2/5
f 278/2/5 274/2/5 277/2/5
f 279/2/5 277/2/5 276/2/5
f 280/2/5 277/2/5 279/2/5
f 283/2/5 282/2/5 281/2/5
f 284/2/5 282/2/5 283/2/5
f 285/2/6 286/2/6 287/2/6
f 287/2/6 286/2/6 288/2/6
f 289/2/6 290/2/6 293/2/6
f 291/2/6 292/2/6 298/2/6
f 289/2/6 293/2/6 299/2/6
f 293/2/6 294/2/6 299/2/6
f 299/2/6 294/2/6 300/2/6
f 294/3/6 295/3/6 301/3/6
f 300/2/6 294/2/6 301/2/6
f 301/3/6 295/3/6 302/3/6
f 296/3/6 297/3/6 303/3/6
f 297/2/6 298/2/6 304/2/6
f 303/3/6 297/3/6 304/3/6
f 298/2/6 292/2/6 305/2/6
f 304/2/6 298/2/6 305/2/6
f 305/2/6 292/2/6 306/2/6
f 300/2/6 301/2/6 307/2/6
f 307/2/6 301/2/6 308/2/6
f 304/2/6 305/2/6 309/2/6
f 309/2/6 305/2/6 310/2/6
f 311/2/6 312/2/6 315/2/6
f 315/2/6 312/2/6 316/2/6
f 313/2/6 314/2/6 317/2/6
f 317/2/6 314/2/6 318/2/6
f 316/2/6 317/2/6 319/2/6
f 319/2/6 317/2/6 320/2/6
f 321/2/6 322/2/6 325/2/6
f 323/2/6 324/2/6 326/2/6
f 321/2/6 325/2/6 327/2/6
f 325/3/6 326/3/6 328/3/6
f 327/2/6 325/2/6 328/2/6
f 326/2/6 324/2/6 329/2/6
f 328/3/6 326/3/6 329/3/6
f 329/2/6 324/2/6 330/2/6
f 328/2/6 329/2/6 331/2/6
f 331/2/6 329/2/6 332/2/6
f 333/2/6 334/2/6 335/2/6
f 335/2/6 334/2/6 336/2/6
f 337/2/6 338/2/6 339/2/6
f 339/2/6 338/2/6 340/2/6
