# MagicaVoxel @ ephtracy

# material
mtllib LightMissileProjectile.mtl
usemtl palette

# normals
vn -1 0 0
vn 1 0 0
vn 0 0 1
vn 0 0 -1
vn 0 -1 0
vn 0 1 0

# texcoords
vt 0.939453 0.5
vt 0.994141 0.5

# verts
v -3.5 18 39
v -3.5 18 36
v -3.5 19 39
v -3.5 19 36
v -2.5 18 36
v -2.5 18 35
v -2.5 18 22
v -2.5 18 21
v -2.5 19 36
v -2.5 19 35
v -2.5 19 22
v -2.5 19 21
v -1.5 17 38
v -1.5 17 12
v -1.5 18 37
v -1.5 18 35
v -1.5 18 22
v -1.5 18 21
v -1.5 18 13
v -1.5 19 37
v -1.5 19 35
v -1.5 19 22
v -1.5 19 21
v -1.5 19 13
v -1.5 20 38
v -1.5 20 12
v -0.5 15 39
v -0.5 15 36
v -0.5 16 39
v -0.5 16 37
v -0.5 16 36
v -0.5 16 35
v -0.5 16 22
v -0.5 16 21
v -0.5 17 37
v -0.5 17 35
v -0.5 17 22
v -0.5 17 21
v -0.5 17 12
v -0.5 17 9
v -0.5 18 12
v -0.5 18 9
v -0.5 18 8
v -0.5 19 12
v -0.5 19 9
v -0.5 19 8
v -0.5 20 37
v -0.5 20 35
v -0.5 20 22
v -0.5 20 21
v -0.5 20 12
v -0.5 20 9
v -0.5 21 39
v -0.5 21 37
v -0.5 21 36
v -0.5 21 35
v -0.5 21 22
v -0.5 21 21
v -0.5 22 39
v -0.5 22 36
v 0.5 18 26
v 0.5 18 25
v 0.5 19 26
v 0.5 19 25
v 2.5 18 39
v 2.5 18 37
v 2.5 19 39
v 2.5 19 37
v -2.5 18 39
v -2.5 18 37
v -2.5 19 39
v -2.5 19 37
v -0.5 18 26
v -0.5 18 25
v -0.5 19 26
v -0.5 19 25
v 0.5 15 39
v 0.5 15 36
v 0.5 16 39
v 0.5 16 37
v 0.5 16 36
v 0.5 16 35
v 0.5 16 22
v 0.5 16 21
v 0.5 17 37
v 0.5 17 35
v 0.5 17 22
v 0.5 17 21
v 0.5 17 12
v 0.5 17 9
v 0.5 18 12
v 0.5 18 9
v 0.5 18 8
v 0.5 19 12
v 0.5 19 9
v 0.5 19 8
v 0.5 20 37
v 0.5 20 35
v 0.5 20 22
v 0.5 20 21
v 0.5 20 12
v 0.5 20 9
v 0.5 21 39
v 0.5 21 37
v 0.5 21 36
v 0.5 21 35
v 0.5 21 22
v 0.5 21 21
v 0.5 22 39
v 0.5 22 36
v 1.5 17 38
v 1.5 17 12
v 1.5 18 37
v 1.5 18 35
v 1.5 18 22
v 1.5 18 21
v 1.5 18 13
v 1.5 19 37
v 1.5 19 35
v 1.5 19 22
v 1.5 19 21
v 1.5 19 13
v 1.5 20 38
v 1.5 20 12
v 2.5 18 36
v 2.5 18 35
v 2.5 18 22
v 2.5 18 21
v 2.5 19 36
v 2.5 19 35
v 2.5 19 22
v 2.5 19 21
v 3.5 18 39
v 3.5 18 36
v 3.5 19 39
v 3.5 19 36
v -3.5 18 39
v -3.5 19 39
v -2.5 18 39
v -2.5 19 39
v -0.5 15 39
v -0.5 16 39
v -0.5 21 39
v -0.5 22 39
v 0.5 15 39
v 0.5 16 39
v 0.5 21 39
v 0.5 22 39
v 2.5 18 39
v 2.5 19 39
v 3.5 18 39
v 3.5 19 39
v -1.5 17 38
v -1.5 20 38
v -0.5 18 38
v -0.5 19 38
v 0.5 18 38
v 0.5 19 38
v 1.5 17 38
v 1.5 20 38
v -2.5 18 37
v -2.5 19 37
v -1.5 18 37
v -1.5 19 37
v -0.5 16 37
v -0.5 17 37
v -0.5 20 37
v -0.5 21 37
v 0.5 16 37
v 0.5 17 37
v 0.5 20 37
v 0.5 21 37
v 1.5 18 37
v 1.5 19 37
v 2.5 18 37
v 2.5 19 37
v -0.5 18 25
v -0.5 19 25
v 0.5 18 25
v 0.5 19 25
v -2.5 18 22
v -2.5 19 22
v -1.5 18 22
v -1.5 19 22
v -0.5 16 22
v -0.5 17 22
v -0.5 20 22
v -0.5 21 22
v 0.5 16 22
v 0.5 17 22
v 0.5 20 22
v 0.5 21 22
v 1.5 18 22
v 1.5 19 22
v 2.5 18 22
v 2.5 19 22
v -3.5 18 36
v -3.5 19 36
v -2.5 18 36
v -2.5 19 36
v -0.5 15 36
v -0.5 16 36
v -0.5 21 36
v -0.5 22 36
v 0.5 15 36
v 0.5 16 36
v 0.5 21 36
v 0.5 22 36
v 2.5 18 36
v 2.5 19 36
v 3.5 18 36
v 3.5 19 36
v -2.5 18 35
v -2.5 19 35
v -1.5 18 35
v -1.5 19 35
v -0.5 16 35
v -0.5 17 35
v -0.5 20 35
v -0.5 21 35
v 0.5 16 35
v 0.5 17 35
v 0.5 20 35
v 0.5 21 35
v 1.5 18 35
v 1.5 19 35
v 2.5 18 35
v 2.5 19 35
v -0.5 18 26
v -0.5 19 26
v 0.5 18 26
v 0.5 19 26
v -2.5 18 21
v -2.5 19 21
v -1.5 18 21
v -1.5 19 21
v -0.5 16 21
v -0.5 17 21
v -0.5 20 21
v -0.5 21 21
v 0.5 16 21
v 0.5 17 21
v 0.5 20 21
v 0.5 21 21
v 1.5 18 21
v 1.5 19 21
v 2.5 18 21
v 2.5 19 21
v -1.5 17 12
v -1.5 20 12
v -0.5 17 12
v -0.5 18 12
v -0.5 19 12
v -0.5 20 12
v 0.5 17 12
v 0.5 18 12
v 0.5 19 12
v 0.5 20 12
v 1.5 17 12
v 1.5 20 12
v -0.5 17 9
v -0.5 18 9
v -0.5 19 9
v -0.5 20 9
v 0.5 17 9
v 0.5 18 9
v 0.5 19 9
v 0.5 20 9
v -0.5 18 8
v -0.5 19 8
v 0.5 18 8
v 0.5 19 8
v -0.5 15 39
v 0.5 15 39
v -0.5 15 36
v 0.5 15 36
v -0.5 16 36
v 0.5 16 36
v -0.5 16 35
v 0.5 16 35
v -0.5 16 22
v 0.5 16 22
v -0.5 16 21
v 0.5 16 21
v -1.5 17 38
v 1.5 17 38
v -0.5 17 37
v 0.5 17 37
v -0.5 17 35
v 0.5 17 35
v -0.5 17 22
v 0.5 17 22
v -0.5 17 21
v 0.5 17 21
v -1.5 17 12
v -0.5 17 12
v 0.5 17 12
v 1.5 17 12
v -0.5 17 9
v 0.5 17 9
v -3.5 18 39
v -2.5 18 39
v 2.5 18 39
v 3.5 18 39
v -2.5 18 37
v -1.5 18 37
v 1.5 18 37
v 2.5 18 37
v -3.5 18 36
v -2.5 18 36
v 2.5 18 36
v 3.5 18 36
v -2.5 18 35
v -1.5 18 35
v 1.5 18 35
v 2.5 18 35
v -2.5 18 22
v -1.5 18 22
v 1.5 18 22
v 2.5 18 22
v -2.5 18 21
v -1.5 18 21
v 1.5 18 21
v 2.5 18 21
v -0.5 18 9
v 0.5 18 9
v -0.5 18 8
v 0.5 18 8
v -0.5 19 26
v 0.5 19 26
v -0.5 19 25
v 0.5 19 25
v -0.5 21 39
v 0.5 21 39
v -0.5 21 37
v 0.5 21 37
v -0.5 16 39
v 0.5 16 39
v -0.5 16 37
v 0.5 16 37
v -0.5 18 26
v 0.5 18 26
v -0.5 18 25
v 0.5 18 25
v -3.5 19 39
v -2.5 19 39
v 2.5 19 39
v 3.5 19 39
v -2.5 19 37
v -1.5 19 37
v 1.5 19 37
v 2.5 19 37
v -3.5 19 36
v -2.5 19 36
v 2.5 19 36
v 3.5 19 36
v -2.5 19 35
v -1.5 19 35
v 1.5 19 35
v 2.5 19 35
v -2.5 19 22
v -1.5 19 22
v 1.5 19 22
v 2.5 19 22
v -2.5 19 21
v -1.5 19 21
v 1.5 19 21
v 2.5 19 21
v -0.5 19 9
v 0.5 19 9
v -0.5 19 8
v 0.5 19 8
v -1.5 20 38
v 1.5 20 38
v -0.5 20 37
v 0.5 20 37
v -0.5 20 35
v 0.5 20 35
v -0.5 20 22
v 0.5 20 22
v -0.5 20 21
v 0.5 20 21
v -1.5 20 12
v -0.5 20 12
v 0.5 20 12
v 1.5 20 12
v -0.5 20 9
v 0.5 20 9
v -0.5 21 36
v 0.5 21 36
v -0.5 21 35
v 0.5 21 35
v -0.5 21 22
v 0.5 21 22
v -0.5 21 21
v 0.5 21 21
v -0.5 22 39
v 0.5 22 39
v -0.5 22 36
v 0.5 22 36

# faces
f 3/1/1 2/1/1 1/1/1
f 4/1/1 2/1/1 3/1/1
f 9/1/1 6/1/1 5/1/1
f 10/1/1 6/1/1 9/1/1
f 11/1/1 8/1/1 7/1/1
f 12/1/1 8/1/1 11/1/1
f 15/1/1 14/1/1 13/1/1
f 16/1/1 14/1/1 15/1/1
f 17/1/1 14/1/1 16/1/1
f 18/1/1 14/1/1 17/1/1
f 19/1/1 14/1/1 18/1/1
f 20/1/1 15/1/1 13/1/1
f 21/2/1 17/2/1 16/2/1
f 22/2/1 17/2/1 21/2/1
f 23/2/1 19/2/1 18/2/1
f 24/1/1 14/1/1 19/1/1
f 24/2/1 19/2/1 23/2/1
f 25/1/1 23/1/1 22/1/1
f 25/1/1 22/1/1 21/1/1
f 25/1/1 24/1/1 23/1/1
f 25/1/1 20/1/1 13/1/1
f 25/1/1 21/1/1 20/1/1
f 26/1/1 14/1/1 24/1/1
f 26/1/1 24/1/1 25/1/1
f 29/1/1 28/1/1 27/1/1
f 30/1/1 28/1/1 29/1/1
f 31/1/1 28/1/1 30/1/1
f 35/1/1 31/1/1 30/1/1
f 35/1/1 32/1/1 31/1/1
f 36/1/1 32/1/1 35/1/1
f 37/1/1 34/1/1 33/1/1
f 38/1/1 34/1/1 37/1/1
f 41/1/1 40/1/1 39/1/1
f 42/1/1 40/1/1 41/1/1
f 44/2/1 42/2/1 41/2/1
f 45/1/1 43/1/1 42/1/1
f 45/2/1 42/2/1 44/2/1
f 46/1/1 43/1/1 45/1/1
f 51/1/1 45/1/1 44/1/1
f 52/1/1 45/1/1 51/1/1
f 54/1/1 48/1/1 47/1/1
f 55/1/1 48/1/1 54/1/1
f 56/1/1 48/1/1 55/1/1
f 57/1/1 50/1/1 49/1/1
f 58/1/1 50/1/1 57/1/1
f 59/1/1 54/1/1 53/1/1
f 59/1/1 55/1/1 54/1/1
f 60/1/1 55/1/1 59/1/1
f 63/2/1 62/2/1 61/2/1
f 64/2/1 62/2/1 63/2/1
f 67/1/1 66/1/1 65/1/1
f 68/1/1 66/1/1 67/1/1
f 69/1/2 70/1/2 71/1/2
f 71/1/2 70/1/2 72/1/2
f 73/2/2 74/2/2 75/2/2
f 75/2/2 74/2/2 76/2/2
f 77/1/2 78/1/2 79/1/2
f 79/1/2 78/1/2 80/1/2
f 80/1/2 78/1/2 81/1/2
f 80/1/2 81/1/2 85/1/2
f 81/1/2 82/1/2 85/1/2
f 85/1/2 82/1/2 86/1/2
f 83/1/2 84/1/2 87/1/2
f 87/1/2 84/1/2 88/1/2
f 89/1/2 90/1/2 91/1/2
f 91/1/2 90/1/2 92/1/2
f 91/2/2 92/2/2 94/2/2
f 92/1/2 93/1/2 95/1/2
f 94/2/2 92/2/2 95/2/2
f 95/1/2 93/1/2 96/1/2
f 94/1/2 95/1/2 101/1/2
f 101/1/2 95/1/2 102/1/2
f 97/1/2 98/1/2 104/1/2
f 104/1/2 98/1/2 105/1/2
f 105/1/2 98/1/2 106/1/2
f 99/1/2 100/1/2 107/1/2
f 107/1/2 100/1/2 108/1/2
f 103/1/2 104/1/2 109/1/2
f 104/1/2 105/1/2 109/1/2
f 109/1/2 105/1/2 110/1/2
f 111/1/2 112/1/2 113/1/2
f 113/1/2 112/1/2 114/1/2
f 114/1/2 112/1/2 115/1/2
f 115/1/2 112/1/2 116/1/2
f 116/1/2 112/1/2 117/1/2
f 111/1/2 113/1/2 118/1/2
f 114/2/2 115/2/2 119/2/2
f 119/2/2 115/2/2 120/2/2
f 116/2/2 117/2/2 121/2/2
f 117/1/2 112/1/2 122/1/2
f 121/2/2 117/2/2 122/2/2
f 120/1/2 121/1/2 123/1/2
f 119/1/2 120/1/2 123/1/2
f 121/1/2 122/1/2 123/1/2
f 111/1/2 118/1/2 123/1/2
f 118/1/2 119/1/2 123/1/2
f 122/1/2 112/1/2 124/1/2
f 123/1/2 122/1/2 124/1/2
f 125/1/2 126/1/2 129/1/2
f 129/1/2 126/1/2 130/1/2
f 127/1/2 128/1/2 131/1/2
f 131/1/2 128/1/2 132/1/2
f 133/1/2 134/1/2 135/1/2
f 135/1/2 134/1/2 136/1/2
f 139/1/3 138/1/3 137/1/3
f 140/1/3 138/1/3 139/1/3
f 145/1/3 142/1/3 141/1/3
f 146/1/3 142/1/3 145/1/3
f 147/1/3 144/1/3 143/1/3
f 148/1/3 144/1/3 147/1/3
f 151/1/3 150/1/3 149/1/3
f 152/1/3 150/1/3 151/1/3
f 155/1/3 154/1/3 153/1/3
f 156/1/3 154/1/3 155/1/3
f 157/1/3 155/1/3 153/1/3
f 157/2/3 156/2/3 155/2/3
f 158/1/3 154/1/3 156/1/3
f 158/2/3 156/2/3 157/2/3
f 159/1/3 157/1/3 153/1/3
f 159/1/3 158/1/3 157/1/3
f 160/1/3 154/1/3 158/1/3
f 160/1/3 158/1/3 159/1/3
f 163/1/3 162/1/3 161/1/3
f 164/1/3 162/1/3 163/1/3
f 169/1/3 166/1/3 165/1/3
f 170/1/3 166/1/3 169/1/3
f 171/1/3 168/1/3 167/1/3
f 172/1/3 168/1/3 171/1/3
f 175/1/3 174/1/3 173/1/3
f 176/1/3 174/1/3 175/1/3
f 179/2/3 178/2/3 177/2/3
f 180/2/3 178/2/3 179/2/3
f 183/1/3 182/1/3 181/1/3
f 184/1/3 182/1/3 183/1/3
f 189/1/3 186/1/3 185/1/3
f 190/1/3 186/1/3 189/1/3
f 191/1/3 188/1/3 187/1/3
f 192/1/3 188/1/3 191/1/3
f 195/1/3 194/1/3 193/1/3
f 196/1/3 194/1/3 195/1/3
f 197/1/4 198/1/4 199/1/4
f 199/1/4 198/1/4 200/1/4
f 201/1/4 202/1/4 205/1/4
f 205/1/4 202/1/4 206/1/4
f 203/1/4 204/1/4 207/1/4
f 207/1/4 204/1/4 208/1/4
f 209/1/4 210/1/4 211/1/4
f 211/1/4 210/1/4 212/1/4
f 213/1/4 214/1/4 215/1/4
f 215/1/4 214/1/4 216/1/4
f 217/1/4 218/1/4 221/1/4
f 221/1/4 218/1/4 222/1/4
f 219/1/4 220/1/4 223/1/4
f 223/1/4 220/1/4 224/1/4
f 225/1/4 226/1/4 227/1/4
f 227/1/4 226/1/4 228/1/4
f 229/2/4 230/2/4 231/2/4
f 231/2/4 230/2/4 232/2/4
f 233/1/4 234/1/4 235/1/4
f 235/1/4 234/1/4 236/1/4
f 237/1/4 238/1/4 241/1/4
f 241/1/4 238/1/4 242/1/4
f 239/1/4 240/1/4 243/1/4
f 243/1/4 240/1/4 244/1/4
f 245/1/4 246/1/4 247/1/4
f 247/1/4 246/1/4 248/1/4
f 249/1/4 250/1/4 251/1/4
f 251/1/4 250/1/4 252/1/4
f 252/1/4 250/1/4 253/1/4
f 253/1/4 250/1/4 254/1/4
f 255/1/4 256/1/4 259/1/4
f 257/1/4 258/1/4 259/1/4
f 256/1/4 257/1/4 259/1/4
f 259/1/4 258/1/4 260/1/4
f 261/1/4 262/1/4 265/1/4
f 265/1/4 262/1/4 266/1/4
f 263/1/4 264/1/4 267/1/4
f 267/1/4 264/1/4 268/1/4
f 269/1/4 270/1/4 271/1/4
f 271/1/4 270/1/4 272/1/4
f 275/1/5 274/1/5 273/1/5
f 276/1/5 274/1/5 275/1/5
f 279/1/5 278/1/5 277/1/5
f 280/1/5 278/1/5 279/1/5
f 283/1/5 282/1/5 281/1/5
f 284/1/5 282/1/5 283/1/5
f 287/1/5 286/1/5 285/1/5
f 288/1/5 286/1/5 287/1/5
f 289/1/5 287/1/5 285/1/5
f 290/1/5 286/1/5 288/1/5
f 291/1/5 289/1/5 285/1/5
f 291/2/5 290/2/5 289/2/5
f 292/1/5 286/1/5 290/1/5
f 292/2/5 290/2/5 291/2/5
f 293/1/5 291/1/5 285/1/5
f 294/1/5 286/1/5 292/1/5
f 295/1/5 293/1/5 285/1/5
f 296/2/5 294/2/5 293/2/5
f 296/1/5 293/1/5 295/1/5
f 297/1/5 286/1/5 294/1/5
f 297/2/5 294/2/5 296/2/5
f 298/1/5 286/1/5 297/1/5
f 299/1/5 297/1/5 296/1/5
f 300/1/5 297/1/5 299/1/5
f 305/1/5 302/1/5 301/1/5
f 308/1/5 304/1/5 303/1/5
f 309/1/5 306/1/5 305/1/5
f 309/1/5 305/1/5 301/1/5
f 310/1/5 306/1/5 309/1/5
f 311/1/5 308/1/5 307/1/5
f 311/1/5 304/1/5 308/1/5
f 312/1/5 304/1/5 311/1/5
f 313/1/5 306/1/5 310/1/5
f 314/1/5 306/1/5 313/1/5
f 315/1/5 311/1/5 307/1/5
f 316/1/5 311/1/5 315/1/5
f 321/1/5 318/1/5 317/1/5
f 322/1/5 318/1/5 321/1/5
f 323/1/5 320/1/5 319/1/5
f 324/1/5 320/1/5 323/1/5
f 327/1/5 326/1/5 325/1/5
f 328/1/5 326/1/5 327/1/5
f 331/2/5 330/2/5 329/2/5
f 332/2/5 330/2/5 331/2/5
f 335/1/5 334/1/5 333/1/5
f 336/1/5 334/1/5 335/1/5
f 337/1/6 338/1/6 339/1/6
f 339/1/6 338/1/6 340/1/6
f 341/2/6 342/2/6 343/2/6
f 343/2/6 342/2/6 344/2/6
f 345/1/6 346/1/6 349/1/6
f 347/1/6 348/1/6 352/1/6
f 349/1/6 350/1/6 353/1/6
f 345/1/6 349/1/6 353/1/6
f 353/1/6 350/1/6 354/1/6
f 351/1/6 352/1/6 355/1/6
f 352/1/6 348/1/6 355/1/6
f 355/1/6 348/1/6 356/1/6
f 354/1/6 350/1/6 357/1/6
f 357/1/6 350/1/6 358/1/6
f 351/1/6 355/1/6 359/1/6
f 359/1/6 355/1/6 360/1/6
f 361/1/6 362/1/6 365/1/6
f 365/1/6 362/1/6 366/1/6
f 363/1/6 364/1/6 367/1/6
f 367/1/6 364/1/6 368/1/6
f 369/1/6 370/1/6 371/1/6
f 371/1/6 370/1/6 372/1/6
f 373/1/6 374/1/6 375/1/6
f 375/1/6 374/1/6 376/1/6
f 373/1/6 375/1/6 377/1/6
f 376/1/6 374/1/6 378/1/6
f 373/1/6 377/1/6 379/1/6
f 377/2/6 378/2/6 379/2/6
f 378/1/6 374/1/6 380/1/6
f 379/2/6 378/2/6 380/2/6
f 373/1/6 379/1/6 381/1/6
f 380/1/6 374/1/6 382/1/6
f 373/1/6 381/1/6 383/1/6
f 381/2/6 382/2/6 384/2/6
f 383/1/6 381/1/6 384/1/6
f 382/1/6 374/1/6 385/1/6
f 384/2/6 382/2/6 385/2/6
f 385/1/6 374/1/6 386/1/6
f 384/1/6 385/1/6 387/1/6
f 387/1/6 385/1/6 388/1/6
f 389/1/6 390/1/6 391/1/6
f 391/1/6 390/1/6 392/1/6
f 393/1/6 394/1/6 395/1/6
f 395/1/6 394/1/6 396/1/6
f 397/1/6 398/1/6 399/1/6
f 399/1/6 398/1/6 400/1/6
